{
  "asset": {
    "generator": "gltfeditor.com",
    "version": "2.0"
  },
  "buffers": [
    {
      "uri": "data:application/octet-stream;base64,",
      "byteLength": 132000
    }
  ],
  "bufferViews": [
    {
      "buffer": 0,
      "byteOffset": 7768,
      "byteLength": 124032,
      "target": 34962,
      "byteStride": 32
    },
    {
      "buffer": 0,
      "byteOffset": 0,
      "byteLength": 7764,
      "target": 34963
    }
  ],
  "accessors": [
    {
      "bufferView": 0,
      "byteOffset": 0,
      "componentType": 5126,
      "normalized": false,
      "count": 3566,
      "max": [-0.800000011920929, 2.700000047683716, 0],
      "min": [-6.400000095367432, -2.299999952316284, -4.400000095367432],
      "type": "VEC3"
    },
    {
      "bufferView": 0,
      "byteOffset": 12,
      "componentType": 5126,
      "normalized": false,
      "count": 3566,
      "max": [1.0000044107437134, 1.0000044107437134, 1.0000044107437134],
      "min": [-1.0000044107437134, -1.0000044107437134, -1.0000044107437134],
      "type": "VEC3"
    },
    {
      "bufferView": 0,
      "byteOffset": 24,
      "componentType": 5126,
      "normalized": false,
      "count": 3566,
      "max": [0.999748945236206, 0.9989956617355347],
      "min": [0.0003766321169678122, 0.0007532835006713867],
      "type": "VEC2"
    },
    {
      "bufferView": 1,
      "byteOffset": 0,
      "componentType": 5123,
      "normalized": false,
      "count": 3876,
      "max": [3565],
      "min": [0],
      "type": "SCALAR"
    }
  ],
  "scene": 0,
  "scenes": [
    {
      "nodes": [0, 1],
      "name": "dog"
    }
  ],
  "nodes": [
    {
      "name": "main",
      "matrix": [
        1, 0, 0, 0, 0, -1.3435884227419592e-7, 0.9999998807907104, 0, 0,
        -0.9999998807907104, -1.3435884227419592e-7, 0, 3.6860475540161133, 0,
        0, 1
      ],
      "mesh": 0
    },
    {
      "name": "Plane",
      "matrix": [
        7.049901008605957, 0, 0, 0, 0, 1, 0, 0, 0, 0, 7.049901008605957, 0,
        -3.3989741802215576, 0, -2.953871726989746, 1
      ]
    }
  ],
  "meshes": [
    {
      "primitives": [
        {
          "attributes": {
            "POSITION": 0,
            "NORMAL": 1,
            "TEXCOORD_0": 2
          },
          "material": 0,
          "mode": 4,
          "indices": 3
        }
      ]
    }
  ],
  "materials": [
    {
      "pbrMetallicRoughness": {
        "baseColorFactor": [1, 1, 1, 1],
        "metallicFactor": 0,
        "roughnessFactor": 1,
        "baseColorTexture": {
          "index": 0,
          "texCoord": 0
        }
      },
      "emissiveFactor": [0, 0, 0],
      "alphaMode": "OPAQUE",
      "doubleSided": true
    }
  ],
  "textures": [
    {
      "sampler": 0,
      "source": 0
    }
  ],
  "samplers": [
    {
      "magFilter": 9729,
      "minFilter": 9729,
      "wrapS": 10497,
      "wrapT": 10497
    }
  ],
  "images": [
    {
      "uri": "data:image/png;base64,",
      "mimeType": "image/png"
    }
  ]
}
